<svg version="1.2" xmlns="http://www.w3.org/2000/svg" viewBox="0 0 1120 1120" width="1120" height="1120">
	<title>w95-logo-svg</title>
	<style>
		.s0 { fill: #000000 } 
		.s1 { fill: #3d87cf } 
		.s2 { fill: #fac705 } 
		.s3 { fill: #66c557 } 
		.s4 { fill: #f3632e } 
	</style>
	<g id="Layer">
		<path id="Layer" class="s0" d="m1140.2 475.4h37v-287.8l115.6 287.8h30.3l117.2-286v286h41.6v-321.4h-62.2l-107.9 269.9-108.9-269.9h-62.7c0 0 0 321.4 0 321.4z"/>
		<path id="Layer" class="s0" d="m1543 154h39.1v34.9h-39.1zm0 82.8h39.1v238.7h-39.1z"/>
		<path id="Layer" class="s0" d="m1891.9 475.4h39.6v-120.9c0-54.7 32.3-88.3 82.7-88.3h6.7v-35.4c-5.2-0.5-9.8-0.9-14.4-0.9-36.5 0-61.1 19.8-77.1 59.8v-53h-37.5c0 0 0 238.7 0 238.7z"/>
		<path id="Layer" fill-rule="evenodd" class="s0" d="m2027.4 355c0-76.4 48.4-124.7 118.2-124.7 70.4 0 119.2 48.3 119.2 124.7 0 75.9-48.8 124.6-119.2 124.6-69.8 0-118.2-48.7-118.2-124.6zm194.2 0c0-60.3-30.3-95.2-76-95.2-45.7 0-75.5 34.4-75.5 95.2 0 60.2 30.3 95.2 75.5 95.2 45.3 0 76-35.4 76-95.2z"/>
		<path id="Layer" fill-rule="evenodd" class="s0" d="m2532.1 355c0-76.4 48.3-124.7 118.2-124.7 70.4 0 119.2 48.3 119.2 124.7 0 75.9-48.8 124.6-119.2 124.6-69.9 0-118.2-48.7-118.2-124.6zm194.2 0c0-60.3-30.3-95.2-76-95.2-45.7 0-75.5 34.4-75.5 95.2 0 60.2 30.3 95.2 75.5 95.2 45.2 0 76-35.4 76-95.2z"/>
		<path id="Layer" class="s0" d="m2873.7 236.7c0-2.7-0.5-5.9-0.5-8.7 0-33.5 14.9-49.2 47.2-49.2 7.2 0 18 0.9 31.9 3.3v-29.5c-12.9-2.3-25.7-3.2-39.1-3.2-53.4 0-78.6 28-78.6 85.5v1.8h-46.7v25.8h46.7v212.9h39.1v-212.9h99.7v125.1c0 30.3 0 52.4 10.8 66.2 14.9 19.8 36.5 28 67.8 28 10.8 0 22.1-1.3 32.9-3.6v-29.4c-9.7 2.3-19 2.7-27.2 2.7-40.1 0-44.7-18.9-44.7-63v-126h62.6v-25.8h-62.6v-59.8l-39.6 3.7v56.1c0 0-99.7 0-99.7 0z"/>
		<path id="Layer" class="s0" d="m1808.1 319.7l36.9-5.1c-8.7-53.8-44.6-84.3-94.9-84.3-69.8 0-118.1 48.8-118.1 124.9 0 76.9 45.7 124.8 112 124.8 53.3 0 90.8-29.5 101-82.5l-35.3-5.9c-8.2 37.3-32.4 58-64.2 58-41.6 0-70.8-35-70.8-94.4 0-60.4 30.8-95.4 71.8-95.4 30.8 0 56.5 22.1 61.6 59.9z"/>
		<path id="Layer" class="s0" d="m2292.4 411c12.2 42.7 52 67.9 109.7 67.9 60.1 0 99.9-31.2 99.9-73.4 0-36.2-26-55-80.5-67.4-50.6-11.5-80.1-11.9-80.1-41.3 0-22.5 19.9-37.1 53-37.1 31.6 0 52.1 12.8 60.2 37.1l36.2-6.8c-12.7-38.6-46.4-59.7-94.9-59.7-57.1 0-93.8 30.8-93.8 70.7 0 39.4 26.5 54.5 83.6 66.9 48 10.6 75.6 13.3 75.6 42.2 0 22.9-22.5 39.9-59.2 39.9-36.3 0-63.8-16.5-74.5-45.4 0 0-35.2 6.4-35.2 6.4z"/>
		<path id="Layer" fill-rule="evenodd" class="s0" d="m5309.5 738.8q0 0 0 0m0 0c-35.6 73.8-103.3 115.3-185.3 115.3-115.7 0-204-82.3-204-193.4 0-45.8 17.8-93.3 50.8-131.5 40.1-46.7 103.3-73.8 171-73.8 150.6 0 242.3 104.4 242.3 286.8 0 202.7-101.5 325.7-249.4 325.7-99.7 0-167.4-40.7-200.4-118.8l62.3-21.2c31.2 54.4 74.9 81.5 131.9 81.5 115.8 0 180.8-90 180.8-260.5zm-310-78.1c0 75.5 58.8 132.4 139.9 132.4 86.4 0 155-65.4 155-138.3 0-81.5-60.6-140-150.6-140-81.9 0-144.3 60.2-144.3 145.9z"/>
		<path id="Layer" class="s0" d="m5350.8 932.3c37.4 87.4 117.5 135.7 224.5 135.7 69.5 0 131.8-24.6 175.5-68.7 36.5-37.4 55.2-84 55.2-138.3 0-116.2-88.2-199.4-212.9-199.4-65 0-114.9 22.9-148.8 64.5l10.7-196h311.8l2.7-62.7h-368.8l-17.8 320.6 58.7 10.2c28.6-51.7 78.4-79.7 136.3-79.7 86.4 0 152.4 61.9 152.4 144.2 0 84-67.7 145.9-162.2 145.9-72.1 0-123.8-33.9-150.5-98.4l-66.8 22.1"/>
		<path id="Layer" class="s0" d="m2446.7 1056.3l170.7-0.2v-268.1c0-40.7 18.7-61.9 49-61.9 29.4 0 44.7 26.3 44.7 67v263.2l172.6-0.2v-286.8c0-110.3-41.8-161.2-147.8-161.2-60.6 0-106.1 25.5-131 73.8v-61.9l-158.1 0.4-0.1 435.9"/>
		<path id="Layer" class="s0" d="m3939 1056.3h127.4l65.4-243.6 59.3 243.6h129.2l146.4-436.2h-123.8l-65 219.8-57-219.8h-133.7l-55.2 213.8-63.2-213.8h-174.6c0 0 144.8 436.2 144.8 436.2z"/>
		<path id="Layer" class="s0" d="m1573.6 1056.1h175.9l81.4-330.7 84.2 330.7h172.3l166.5-578.7h-147.7l-88.6 333.4-86.8-335.6h-160.3l-84.6 338.9-85.9-338.9h-192l165.6 580.9"/>
		<path id="Layer" class="s0" d="m2239.2 477.4h172.8v107.8h-172.8z"/>
		<path id="Layer" class="s0" d="m2239.2 620h172.8v436.1h-172.8z"/>
		<path id="Layer" fill-rule="evenodd" class="s0" d="m3356.7 1055.9m0 0h-166.2v-58.4h-1.9c-26.4 48.1-65.5 67-123.8 67-133.9 0-182.6-117.8-182.6-226.1 0-112.6 47.8-230.4 188-230.4 44.7 0 82.9 18.1 111.1 44.7v-186.5h175.4zm-177.6-272.5c0-17.2 0.9-37.8-10.9-51.6-8.2-11.2-24.6-17.2-39.2-17.2-41.4 0-64.8 47.2-65.1 128.1 0 38.7 7.8 107.5 64.2 107.5 18.2 0 30.1-7.8 40.1-22.4 12.7-18.9 10.9-34.4 10.9-55.9z"/>
		<path id="Layer" fill-rule="evenodd" class="s0" d="m3356.9 838.9c0-138.7 100-230.6 248.3-230.6 149.1 0 248.3 91.9 248.3 230.6 0 137.9-99.2 230.6-248.3 230.6-148.3 0-248.3-92.7-248.3-230.6zm318.9 0c0-81.7-27.6-120.8-70.5-120.8-42.9 0-70.4 39.1-70.4 120.8 0 81.7 27.7 120.9 70.6 120.9 42.9 0 70.3-39.2 70.3-120.9z"/>
		<path id="Layer" class="s0" d="m4400.8 931.1c25.7 86.7 110.3 134.7 244.5 134.7 148 0 238-66.6 238-154.9 0-36.3-14.6-67.4-43.1-91-35-28.6-76.3-34.5-126.9-42.9-87.3-14.4-130.8-11-130.5-37.9 0.2-14.5 17.5-30.3 52.4-30.3 43.2 0 70.7 14.2 87.3 41.2l141.6-22.7c-31.3-75-107.6-116.2-219.7-116.2-139.8 0-220.6 64-220.6 149.9 0 37 19.3 72.4 52.4 96 41.3 29.4 87.3 36.2 139.7 44.6 65.3 10.9 100.1 7.8 102.9 32 2 16.7-23 29.4-66.1 29.4-60.7 0-94.7-16.8-103-48.8 0 0-148.9 16.9-148.9 16.9z"/>
		<g id="Layer">
			<path id="Layer" class="s1" d="m479.8 846.6l104.1-257.7c49.6-2.8 130 8.4 179.8 20.4l-107.1 265.2c-48.5-12.1-128.2-26.7-176.8-27.9z"/>
			<path id="Layer" class="s2" d="m947.7 713l-108.2 266.4c-36.2-29.7-135.3-86.2-182.9-104.9l107.1-265.2c48.4 17.3 151.9 69.2 184 103.7z"/>
			<path id="Layer" class="s3" d="m1053.6 466.3l-106.2 246.8c-34.7-31.7-135-85.9-184-103.7l107.3-265.7c49 16.4 151.1 86.3 182.9 122.6z"/>
			<path id="Layer" class="s4" d="m583.9 589l105.5-260.8c49.5-1.7 131.8 6.1 181.5 15.6l-107.3 265.7c-49.2-13.5-130.6-21.5-179.7-20.5z"/>
			<path id="Layer" class="s1" d="m226.4 684.8l-50.9-0.8c3.4-10.3 7.9-21.9 12.2-31.5l51.5-0.1c-3.8 10.5-8.2 21.9-12.8 32.4z"/>
			<path id="Layer" class="s1" d="m305.1 727.3l-64.2-0.3 17.9-43.7c21.2-0.1 42.7 0 64 0.8 0 0-17.7 43.2-17.7 43.2z"/>
			<path id="Layer" class="s1" d="m411.6 716.5c-7.4 17.1-13.7 35.5-21.4 52.7l-72.2-0.9 21.3-52.3c0 0 72.3 0.5 72.3 0.5z"/>
			<path id="Layer" class="s1" d="m157.9 632.5l-37.1-0.3c3-8.5 6.7-18.1 10.6-26.6 12.6-0.1 25.2-0.9 37.9-0.4 0 0-11.4 27.3-11.4 27.3z"/>
			<path id="Layer" class="s1" d="m91 578.2c-9.6 0.3-19.2 1.3-28.8 1l9.3-22.5c9.5-0.5 19.1-1 28.6-1z"/>
			<path id="Layer" class="s1" d="m260 601.1l-51-0.6 12.2-31.4c17.4 0.5 34.7-0.5 51.9 0.1 0 0-13.1 31.9-13.1 31.9z"/>
			<path id="Layer" class="s1" d="m338.4 644.2l-63.7-0.2 17.2-43.4c21.4-0.1 42.9-0.3 64.3 0.3 0 0-17.8 43.3-17.8 43.3z"/>
			<path id="Layer" class="s1" d="m424.3 685.1l-72.5-1.6 21.1-51.4 72.2 0.7c0 0-20.8 52.3-20.8 52.3z"/>
			<path id="Layer" class="s1" d="m193.1 545.9c-12.4-0.4-25.2 0.6-37.7-0.1l11.4-28.2 36.9 1c-2.7 8.8-6.5 18.5-10.6 27.3z"/>
			<path id="Layer" class="s1" d="m125.8 492l-28.6 0.6 8.8-22.4c9.3-0.9 19.4-0.9 29-0.9 0 0-9.2 22.7-9.2 22.7z"/>
			<path id="Layer" class="s4" d="m329.5 429.2l-51.2-0.4 12.5-32c17.2 0.3 34.5 0 51.8 0.4 0 0-13.1 32-13.1 32z"/>
			<path id="Layer" class="s4" d="m344.4 472.3l17.2-43.9h63.8l-17.2 43.9z"/>
			<path id="Layer" class="s4" d="m494.7 510.4l-72.5-0.5 21-52.2 72.3 0.3c0 0-20.8 52.4-20.8 52.4z"/>
			<path id="Layer" class="s4" d="m262.9 373.3c-12.2 0.7-24.9 0-37.3 0.3l10.4-27.8c12.1-0.9 25 0.5 37.3 0.2 0 0-10.4 27.4-10.4 27.3z"/>
			<path id="Layer" class="s4" d="m195.3 319.1c-9.5 0.3-19.1 1.3-28.7 0.9l9.4-22.6 28.4-1.3c0 0-9.1 23-9.1 23z"/>
			<path id="Layer" class="s4" d="m364 343.5c-17 0-34.1-0.2-51.2-1l12.6-31.3c17.2 0.3 34.4-0.4 51.7 0.1 0 0-13.1 32.2-13.1 32.2z"/>
			<path id="Layer" class="s4" d="m442.4 386.7c-21.3 0-42.8 0.3-64.2-0.3l17.9-43.6c21.4-0.2 42.7 0.1 64.1 0.3z"/>
			<path id="Layer" class="s4" d="m527.7 428.2l-72-0.7 21-52.4 72.5 0.5c0 0-21.5 52.6-21.5 52.6z"/>
			<path id="Layer" class="s4" d="m297.1 287.7h-37.4l11-28.1c12.7 0.6 25.1 0 37.6 0.7 0 0-11.2 27.4-11.2 27.4z"/>
			<path id="Layer" class="s4" d="m230.2 233.2l-28.7 1.2 8.9-22.7c9.5-1.1 19.2-0.6 28.7-1.2 0 0-8.9 22.7-8.9 22.7z"/>
			<path id="Layer" class="s0" d="m194 772.4c-20.2 0.2-40.5 0.1-60.8-0.5l14.5-36c20.3 0 40.8 0.7 61.3 0.4 0 0-15 36.1-15 36.1z"/>
			<path id="Layer" class="s0" d="m659.3 374l-91 0.6 31.9-79.4c31-3.5 62.2-6.8 93.3-5.8z"/>
			<path id="Layer" class="s0" d="m266 151.6l-34.5 0.8 10-25.7c11.7-0.2 23.3-0.7 34.9-0.7 0 0-10.4 25.6-10.4 25.6z"/>
			<path id="Layer" class="s0" d="m334.9 202.4c-15.4-0.5-30.8-0.4-46.2-1l12.1-29.7c15.5 0.5 31-0.3 46.5 0.7 0 0-12.4 30-12.4 30z"/>
			<path id="Layer" class="s0" d="m566.7 346.1l-86.1-0.4 25-62.6 86.3 0.8c0 0-25.2 62.2-25.2 62.2z"/>
			<path id="Layer" class="s0" d="m405.3 302.3l18.7-47.3 75.9 0.1-19 47.7c0 0-75.6-0.5-75.6-0.5z"/>
			<path id="Layer" class="s0" d="m401.5 258.8l-61-0.4 14.1-35.7c20.4 0 40.8-0.8 61.4 0z"/>
			<path id="Layer" class="s0" d="m626 456.8c-30.3 0.7-60.8 1.2-91.3 1.3l29.8-73.4 90.8-0.4c0 0-29.3 72.5-29.3 72.5z"/>
			<path id="Layer" class="s0" d="m591.8 541.1l-91.1 1.3-0.5-0.3 29.5-73.4 91.8-1.4c0 0-29.7 73.8-29.7 73.8z"/>
			<path id="Layer" class="s0" d="m128.4 407.9l10-25.4 35.1-1.2-10.3 26.1c0 0-34.8 0.5-34.8 0.5z"/>
			<path id="Layer" class="s0" d="m466.8 625.8l29.4-73.2 91.2-1.1-29.1 73.3c0 0-91.5 1-91.5 1z"/>
			<path id="Layer" class="s0" d="m230.5 460.6l-46.2-0.6 12.1-29.8c15.5 0.5 30.9-0.2 46.4 0.8 0 0-12.3 29.6-12.3 29.6z"/>
			<path id="Layer" class="s0" d="m462.7 603.3l-86.1-0.6 24.8-62.2 86.3 0.7c0 0-25 62.1-25 62.1z"/>
			<path id="Layer" class="s0" d="m376.7 560.8l-75.2-0.3-0.6-0.2 19.2-47.2 75.8 0.1c0 0-19.2 47.6-19.2 47.6z"/>
			<path id="Layer" class="s0" d="m297.1 517.3l-60.8-0.6 14-35.7c20.6-0.2 41.2-0.1 61.8 0.3 0 0-15 36.1-15 36z"/>
			<path id="Layer" class="s0" d="m523.9 709.9l-0.4 0.8-91.2 1.2 29.9-75.2 91.7-1c0 0-30 74.2-30 74.2z"/>
			<path id="Layer" class="s0" d="m489.7 794.6l-91.5 2.2-0.6-0.3 30.4-74.4 91-0.9c0 0-29.3 73.4-29.3 73.4z"/>
			<path id="Layer" class="s0" d="m58.6 665.8c-11.5-0.4-23 0.7-34.6 0l10.1-24.5c11.7-1 23.5-0.8 35.4-1.3 0 0-10.9 25.8-10.9 25.8z"/>
			<path id="Layer" class="s0" d="m453.2 884.6c-30.5-0.7-60.9-0.9-91.5 1.5l31.9-79 91.8-1.6z"/>
			<path id="Layer" class="s0" d="m126.5 719.1l-46.6 0.2 11.5-29.6c15.8 0 31.2-0.5 47-0.1 0 0-11.9 29.5-11.9 29.5z"/>
			<path id="Layer" class="s0" d="m359.3 859.3l-85.7-1.3 25.1-62 85.7 0.8c0 0-25.1 62.5-25.1 62.5z"/>
			<path id="Layer" class="s0" d="m198.2 815.8l19.2-47.8 75.4 0.5-19.2 47.9c0 0-75.4-0.6-75.4-0.6z"/>
			<path id="Layer" fill-rule="evenodd" class="s0" d="m1103.7 457.9l-243.2 601.9c-63.1-86-172.7-140.3-282.9-160.8-37.9-7-75.9-12.2-113.8-13.7l31.8-78.3c48.6 1.4 97.3 7.1 145.9 19.2l78.5-194.6c-49.8-12-99.5-13.5-149-10.8l25.5-63.9c49-1 98.2 2.1 147.4 15.6l75.8-187.5c-49.6-9.6-99.3-13.1-148.8-11.4l34-84.7c112.7-0.5 243.2 31 335.6 105.8 23.4 18.6 45 39.1 63.2 63.2zm-196.7 269.2c-32.1-34.6-78.1-59.1-126.4-76.3l-77.8 193.5c47.4 18.7 91.9 40.9 128.1 70.6zm99.4-247.1c-31.9-36.3-76.1-62.1-125-78.3l-76.6 189.4c48.8 18 91.9 42.6 126.6 74.2z"/>
		</g>
	</g>
</svg>